<?xml version="1.0" standalone="no"?><!DOCTYPE svg PUBLIC "-//W3C//DTD SVG 1.1//EN" "http://www.w3.org/Graphics/SVG/1.1/DTD/svg11.dtd"><svg t="1628086481803" class="icon" viewBox="0 0 1024 1024" version="1.1" xmlns="http://www.w3.org/2000/svg" p-id="1196" xmlns:xlink="http://www.w3.org/1999/xlink" width="128" height="128"><defs><style type="text/css"></style></defs><path d="M924.5 223.3c7 6.7 10.7 14.8 11 24.5s-2.8 18.2-9.5 25.5l-494 526-1 1c-1.3 0.7-4 2.3-8 5 0 0-0.5 0.3-1.5 1s-1.8 1.3-2.5 2c-4 1.3-8.3 2-13 2-4.7 0-9-0.7-13-2-0.7 0-1.3-0.3-2-1s-1.3-1-2-1c-4-2.7-6.3-4.3-7-5l-1-1-282-278c-6.7-6.7-10.2-14.8-10.5-24.5-0.3-9.7 3-18 10-25s15.3-10.5 25-10.5 17.8 3.3 24.5 10l257 253 470-500c6.7-7.3 14.8-11.2 24.5-11.5s18 2.8 25 9.5z" fill="#d81e06" p-id="1197"></path></svg>